# xmcd
#
# Track frame offsets:
# 150
# 14336
# 38121
# 52505
# 97796
# 126068
# 151303
# 177804
# 196293
# 220073
# 241627
# 274691
# 292096
#
# Disc length: 4191 seconds
#
#
# Revision: 3
# Processed by: cddbd v1.5.1PL0 Copyright (c) Steve Scherf et al.
# Submitted via: FreeRIP 2.942 
#
DISCID=a0105d0d
DTITLE=Mem Shannon - I'm From Phunkville
DYEAR=2005
DGENRE=Blues -  Blues Funk
TTITLE0=The Reason
TTITLE1=Swing Tiger Swing
TTITLE2=Perfect World
TTITLE3=Phunkville
TTITLE4=I'll Kiss A Pitbull
TTITLE5=Battle Ground
TTITLE6=The Lights Of Caracas (I Didn't Know)
TTITLE7=Sweet Potato
TTITLE8=No Religion
TTITLE9=Forget About Me
TTITLE10=Eleanor Rigby
TTITLE11=Ignant Stick
TTITLE12=We Going
EXTD=
EXTT0=
EXTT1=
EXTT2=
EXTT3=
EXTT4=
EXTT5=
EXTT6=
EXTT7=
EXTT8=
EXTT9=
EXTT10=
EXTT11=
EXTT12=
PLAYORDER=
